<svg width="2928" height="1254" xmlns="http://www.w3.org/2000/svg" xmlns:xlink="http://www.w3.org/1999/xlink" xml:space="preserve" overflow="hidden"><defs><clipPath id="clip0"><rect x="736" y="544" width="2928" height="1254"/></clipPath></defs><g clip-path="url(#clip0)" transform="translate(-736 -544)"><path d="M838 595.517C1280.22 673.214 1722.44 750.912 2176.44 749.992 2630.44 749.073 3096.22 669.536 3562 590" stroke="#156082" stroke-width="91.6667" stroke-miterlimit="8" fill="none" fill-rule="evenodd"/><path d="M827 717.482C1272.79 794.694 1718.59 871.906 2176.25 870.992 2633.92 870.078 3103.46 791.039 3573 712" stroke="#156082" stroke-width="91.6667" stroke-miterlimit="8" fill="none" fill-rule="evenodd"/><path d="M1034.5 923.845C1402.69 985.031 1770.89 1046.22 2148.89 1045.49 2526.89 1044.77 2914.69 982.135 3302.5 919.5" stroke="#156082" stroke-width="275" stroke-miterlimit="8" fill="none" fill-rule="evenodd"/><path d="M1189.62 782.232 1024.46 1063.62 821.11 755.075Z" fill="#156082" fill-rule="evenodd"/><path d="M0 278.054 84.7103 0 370.902 278.054Z" fill="#156082" fill-rule="evenodd" transform="matrix(0.997296 -0.0734944 -0.0734944 -0.997296 3232.69 1060.02)"/><rect x="736" y="1699" width="2928" height="99" fill="#156082"/><rect x="2091" y="1445" width="218" height="254" fill="#156082"/><rect x="2574" y="1445" width="217" height="254" fill="#156082"/><rect x="1602" y="1445" width="218" height="254" fill="#156082"/><rect x="1994" y="1007" width="56.0001" height="692" fill="#FFFFFF"/><rect x="2339" y="1007" width="56" height="692" fill="#FFFFFF"/><rect x="1938" y="1007" width="56" height="692" fill="#156082"/><rect x="2395" y="1007" width="56" height="692" fill="#156082"/><rect x="2858" y="1007" width="56" height="692" fill="#FFFFFF"/><rect x="2914" y="1007" width="56" height="692" fill="#156082"/><rect x="1461" y="1007" width="56" height="692" fill="#FFFFFF"/><rect x="1405" y="1007" width="56" height="692" fill="#156082"/><rect x="3073" y="927" width="55" height="772" fill="#FFFFFF"/><rect x="3128" y="1007" width="56" height="692" fill="#156082"/><rect x="1209" y="927" width="56" height="772" fill="#FFFFFF"/><rect x="1153" y="1007" width="56" height="692" fill="#156082"/><rect x="1007" y="1011" width="56.0001" height="692" fill="#156082"/><rect x="3271" y="1007" width="56" height="692" fill="#156082"/><path d="M1090 884.931C1440.01 954.373 1790.02 1023.81 2149.36 1022.99 2508.69 1022.17 2877.34 951.086 3246 880" stroke="#156082" stroke-width="91.6667" stroke-miterlimit="8" fill="none" fill-rule="evenodd"/></g></svg>