<svg height="212.362989" viewBox="0 0 203.935 91.968755" width="470.891846" xmlns="http://www.w3.org/2000/svg" xmlns:xlink="http://www.w3.org/1999/xlink"><symbol id="a" overflow="visible"><path d="m10.21875-29.546875h-14.125l.734375 4.171875c0 .03125 1.515625.375 1.65625 1.21875l3.359375 19.03125c.03125.15625-.15625.34375-.234375.34375h-1.953125l.84375 4.78125h3.75c1.984375 0 3.53125-1.84375 3.0625-4.515625l-3.5625-20.25c-.015625-.07813-.015625-.07813.03125-.07813h3.0625c.078125 0 .125.07813.125.15625l4.359375 24.687505h5.359375l-5.03125-28.515625c-.171875-1.03125-1.09375-1.03125-1.4375-1.03125zm0 0"/></symbol><symbol id="b" overflow="visible"><path d="m1.5-29.546875h-5.9375l.828125 4.703125h1.296875c.34375 0 .515625.265625.578125.609375l1.921875 10.984375h5.3125l-2.6875-15.265625c-.171875-1.03125-1.015625-1.03125-1.3125-1.03125zm0 0"/></symbol><symbol id="c" overflow="visible"><path d="m9.6875-29.546875h-14.125l.828125 4.703125h6.203125s.375 0 .4375.421875l4.3125 24.421875h5.359375l-4.296875-24.34375c-.03125-.234375-.15625-.5.15625-.5h1.953125zm0 0"/></symbol><symbol id="d" overflow="visible"><path d="m8.390625-29.546875h-12.75l.828125 4.703125h8.3125c.140625 0 .28125.15625.34375.453125l4.296875 24.390625h5.359375l-5.03125-28.515625c-.171875-1.03125-1.0625-1.03125-1.359375-1.03125zm-10.859375 9.671875 3.5 19.875h5.328125l-3.5-19.875zm0 0"/></symbol><symbol id="e" overflow="visible"/><symbol id="f" overflow="visible"><path d="m1.453125-29.546875h-5.890625l.828125 4.703125h1.34375c.34375 0 .40625.1875.453125.5l4.296875 24.34375h5.359375l-5.03125-28.515625c-.171875-1.03125-1.046875-1.03125-1.359375-1.03125zm0 0"/></symbol><symbol id="g" overflow="visible"><path d="m2.796875-29.546875h-6.890625l.828125 4.703125h2.40625c.234375 0 .265625.1875.265625.1875l3.40625 19.375s.171875.5-.21875.5h-2.671875l.84375 4.78125h7.234375c.15625 0 1.078125 0 .890625-1.03125l-4.84375-27.484375c-.171875-1.03125-1.09375-1.03125-1.25-1.03125zm0 0"/></symbol><symbol id="h" overflow="visible"><path d="m11.78125-19.875-1.703125-9.671875h-5.359375l2.21875 12.625-6.015625-12.625h-5.46875l.828125 4.703125h1.453125l9.421875 20.0625h-7.390625l.84375 4.78125h14.359375l-6.765625-14.234375c3.84375-4.109375 3.84375-4.109375 3.578125-5.640625zm0 0"/></symbol><g fill="#214785" transform="translate(-196.58846 -27.492188)"><use height="100%" width="100%" x="200.49471" xlink:href="#a" y="89.490601"/><use height="100%" width="100%" x="218.40848" xlink:href="#b" y="89.490601"/><use height="100%" width="100%" x="227.09743" xlink:href="#a" y="89.490601"/><use height="100%" width="100%" x="245.0112" xlink:href="#c" y="89.490601"/><use height="100%" width="100%" x="260.66663" xlink:href="#d" y="89.490601"/><use height="100%" width="100%" x="276.58997" xlink:href="#e" y="89.490601"/><use height="100%" width="100%" x="282.82916" xlink:href="#a" y="89.490601"/><use height="100%" width="100%" x="300.74295" xlink:href="#f" y="89.490601"/><use height="100%" width="100%" x="309.85294" xlink:href="#g" y="89.490601"/><use height="100%" width="100%" x="320.14954" xlink:href="#f" y="89.490601"/><use height="100%" width="100%" x="329.25955" xlink:href="#b" y="89.490601"/><use height="100%" width="100%" x="338.33127" xlink:href="#h" y="89.490601"/><use height="100%" width="100%" x="354.29288" xlink:href="#d" y="89.490601"/></g><path d="m164.79045 0-5.17579 8.789062 7.91407 13.6875 10.54687.08984zm0 0" fill="#21457f"/><path d="m168.61076 83.312502-5.09766 8.65625-13.125-22.296878 10.39063.09375zm0 0" fill="#78ca42"/><path d="m193.0092 69.070312 10.92578-.09375-13.01563-22.992188 13.01563-22.992187-10.77735-.08984-12.90625 23.214844zm0 0" fill="#459edc"/></svg>