<svg width="3515" height="2394" xmlns="http://www.w3.org/2000/svg" xmlns:xlink="http://www.w3.org/1999/xlink" xml:space="preserve" overflow="hidden"><defs><clipPath id="clip0"><rect x="443" y="52" width="3515" height="2394"/></clipPath></defs><g clip-path="url(#clip0)" transform="translate(-443 -52)"><path d="M451 800.724C1018.88 895.417 1586.75 990.111 2169.75 988.99 2752.75 987.87 3350.88 890.935 3949 794" stroke="#104862" stroke-width="91.6667" stroke-miterlimit="8" fill="none" fill-rule="evenodd"/><path d="M451 948.758C1018.88 1043.94 1586.75 1139.12 2169.75 1137.99 2752.75 1136.86 3350.88 1039.43 3949 942" stroke="#104862" stroke-width="91.6667" stroke-miterlimit="8" fill="none" fill-rule="evenodd"/><path d="M786.5 1178.88C1245.61 1240.55 1704.71 1302.22 2176.04 1301.49 2647.38 1300.76 3130.94 1237.63 3614.5 1174.5" stroke="#104862" stroke-width="275" stroke-miterlimit="8" fill="none" fill-rule="evenodd"/><path d="M811.587 1021.13 768.657 1315.24 443.078 993.976Z" fill="#104862" fill-rule="evenodd"/><path d="M0 299.745 21.2786 0 370.902 299.745Z" fill="#104862" fill-rule="evenodd" transform="matrix(0.997296 -0.0734944 -0.0734944 -0.997296 3609.58 1312.63)"/><rect x="2091" y="1676" width="218" height="254" fill="#104862"/><rect x="2662" y="1676" width="217" height="254" fill="#104862"/><rect x="1521" y="1676" width="217" height="254" fill="#104862"/><rect x="1937" y="1238" width="56" height="692" fill="#FFFFFF"/><rect x="2406" y="1238" width="56" height="692" fill="#FFFFFF"/><rect x="1881" y="1237" width="56" height="693" fill="#104862"/><rect x="2462" y="1237" width="56" height="693" fill="#104862"/><rect x="2979" y="1237" width="55" height="693" fill="#FFFFFF"/><rect x="3034" y="1237" width="56" height="693" fill="#104862"/><rect x="1367" y="1237" width="56" height="693" fill="#FFFFFF"/><rect x="1311" y="1237" width="56" height="693" fill="#104862"/><rect x="3374" y="1158" width="56" height="772" fill="#FFFFFF"/><rect x="3430" y="1237" width="56" height="693" fill="#104862"/><rect x="967" y="1158" width="55" height="772" fill="#FFFFFF"/><rect x="911" y="1237" width="56.0001" height="693" fill="#104862"/><rect x="767" y="1242" width="56.0001" height="692" fill="#104862"/><rect x="3573" y="1142" width="56" height="792" fill="#104862"/><path d="M809 1112.93C1279.14 1182.37 1749.29 1251.81 2231.96 1250.99 2714.62 1250.17 3209.81 1179.09 3705 1108" stroke="#104862" stroke-width="91.6667" stroke-miterlimit="8" fill="none" fill-rule="evenodd"/><path d="M12.7848-13.1401 308.772 274.844C316.029 281.905 316.188 293.512 309.127 300.769 302.067 308.026 290.46 308.185 283.203 301.124L-12.7848 13.1401C-20.0418 6.07924-20.2009-5.5277-13.1401-12.7848-6.07924-20.0418 5.5277-20.2009 12.7848-13.1401ZM334.342 248.564C356.113 269.746 356.59 304.567 335.408 326.338 314.225 348.109 279.404 348.586 257.633 327.404 235.862 306.222 235.385 271.401 256.567 249.63 277.75 227.858 312.57 227.381 334.342 248.564Z" fill="#156082" transform="matrix(1 0 0 -1 890.5 707.484)"/><path d="M18.2058-20.6107 506.331 410.559 469.919 451.78-18.2058 20.6107ZM542.742 369.338C576.891 399.502 580.121 451.638 549.957 485.787 519.793 519.936 467.657 523.166 433.508 493.002 399.359 462.837 396.129 410.701 426.293 376.552 456.457 342.403 508.593 339.173 542.742 369.338Z" fill="#0E2841" transform="matrix(1 0 0 -1 2726.5 565.67)"/><rect x="571" y="2097" width="512" height="37.0002" fill="#156082"/><rect x="691" y="2184" width="392" height="37.0002" fill="#163E64"/><rect x="823" y="2271" width="260" height="36.9998" fill="#0E2841"/><rect x="2935" y="624" width="127" height="212" fill="#156082"/><rect x="3151" y="479" width="127" height="317" fill="#163E64"/><rect x="3366" y="345" width="127" height="417" fill="#0E2841"/><path d="M2672 107 2774 107 2774 441C2756.57 407.942 2697.71 402.158 2672 441L2672 107Z" fill="#104862" fill-rule="evenodd"/><path d="M2777 879 2675 879 2675 652C2692.43 674.467 2751.29 678.399 2777 652L2777 879Z" fill="#163E64" fill-rule="evenodd"/><rect x="2552" y="727" width="94.9998" height="158" fill="#156082"/><path d="M2209 894 2123 894 2123 373C2149.95 383.475 2166.25 395.309 2209 373L2209 894Z" fill="#156082" fill-rule="evenodd"/><path d="M2009 110.5C2009 90.3416 2025.57 73.9999 2046 73.9999 2066.43 73.9999 2083 90.3416 2083 110.5 2083 130.658 2066.43 147 2046 147 2025.57 147 2009 130.658 2009 110.5Z" fill="#156082" fill-rule="evenodd"/><path d="M798 504C798 483.566 814.565 467 835 467 855.435 467 872 483.566 872 504 872 524.435 855.435 541 835 541 814.565 541 798 524.435 798 504Z" fill="#156082" fill-rule="evenodd"/><rect x="1124" y="590" width="102" height="212" fill="#156082"/><path d="M989.857 690.806 1091 590 1091 802 989 802C989.286 764.942 989.571 727.864 989.857 690.806Z" fill="#0E2841" fill-rule="evenodd"/><rect x="2003" y="639" width="86" height="253" fill="#163E64"/><path d="M1576 419 1678 419 1678 575C1660.57 559.56 1601.71 556.858 1576 575L1576 419Z" fill="#156082" fill-rule="evenodd"/><rect x="0" y="0" width="55" height="168" fill="#156082" transform="matrix(-1 0 0 1 1534 217)"/><rect x="0" y="0" width="52.9999" height="311" fill="#104862" transform="matrix(-1 0 0 1 1628 73.9999)"/><rect x="0" y="0" width="55" height="222" fill="#0E2841" transform="matrix(-1 0 0 1 1726 165)"/><path d="M3556 2194C3556 2173.57 3572.34 2157 3592.5 2157 3612.66 2157 3629 2173.57 3629 2194 3629 2214.43 3612.66 2231 3592.5 2231 3572.34 2231 3556 2214.43 3556 2194Z" fill="#163E64" fill-rule="evenodd"/><path d="M2490 2133.5C2490 2113.34 2506.34 2097 2526.5 2097 2546.66 2097 2563 2113.34 2563 2133.5 2563 2153.66 2546.66 2170 2526.5 2170 2506.34 2170 2490 2153.66 2490 2133.5Z" fill="#156082" fill-rule="evenodd"/><path d="M1625 2379C1625 2364.64 1636.64 2353 1651 2353 1665.36 2353 1677 2364.64 1677 2379 1677 2393.36 1665.36 2405 1651 2405 1636.64 2405 1625 2393.36 1625 2379Z" fill="#0E2841" fill-rule="evenodd"/><path d="M454 699.724C1021.88 794.417 1589.75 889.111 2172.75 887.99 2755.75 886.87 3353.88 789.935 3952 693" stroke="#FFFFFF" stroke-width="45.8333" stroke-miterlimit="8" fill="none" fill-rule="evenodd"/><path d="M0 0 241.564 303.646" stroke="#156082" stroke-width="36.6667" stroke-miterlimit="8" fill="none" fill-rule="evenodd" transform="matrix(-1 0 0 1 3332.06 1979.5)"/><path d="M3.27755-15.7033 431.785 73.7338 425.23 105.14-3.27755 15.7033ZM438.34 42.3273C464.358 47.7577 481.048 73.2517 475.617 99.2697 470.187 125.288 444.693 141.977 418.675 136.547 392.657 131.116 375.967 105.622 381.398 79.6044 386.828 53.5864 412.322 36.8968 438.34 42.3273Z" fill="#156082" transform="matrix(-1 0 0 1 3090.51 2290)"/><path d="M1691.92 2238.37 1545.51 2125.58 1559.49 2107.42 1705.91 2220.22ZM1531.52 2143.73C1516.48 2132.15 1513.68 2110.56 1525.27 2095.52 1536.85 2080.48 1558.44 2077.68 1573.48 2089.27 1588.52 2100.85 1591.32 2122.44 1579.73 2137.48 1568.15 2152.52 1546.56 2155.32 1531.52 2143.73Z" fill="#156082"/><path d="M0 0 314.898 115.056" stroke="#156082" stroke-width="27.5" stroke-linecap="round" stroke-miterlimit="8" fill="none" fill-rule="evenodd" transform="matrix(-1 0 0 1 1725.9 2228)"/><path d="M4.39277-15.4285 350.32 83.0634 341.535 113.92-4.39277 15.4285ZM359.106 52.2064C384.669 59.4846 399.491 86.1074 392.213 111.67 384.935 137.233 358.312 152.056 332.749 144.777 307.187 137.499 292.364 110.876 299.642 85.3135 306.92 59.7508 333.543 44.9282 359.106 52.2064Z" fill="#104862" transform="matrix(1 0 0 -1 1726 2248.49)"/><path d="M1746.86 2232.63 1975.88 2384.35 1958.16 2411.1 1729.14 2259.37ZM1993.6 2357.6C2015.75 2372.28 2021.82 2402.14 2007.14 2424.3 1992.46 2446.46 1962.6 2452.52 1940.44 2437.84 1918.28 2423.16 1912.22 2393.3 1926.9 2371.14 1941.58 2348.99 1971.44 2342.92 1993.6 2357.6Z" fill="#0E2841"/><path d="M17.3553-14.9655 208.383 206.567 173.672 236.498-17.3553 14.9655ZM243.093 176.636C267.889 205.392 264.679 248.803 235.924 273.599 207.168 298.394 163.757 295.184 138.961 266.429 114.166 237.674 117.375 194.262 146.131 169.467 174.886 144.671 218.298 147.881 243.093 176.636Z" fill="#156082" transform="matrix(-1 0 0 1 1909.03 2007)"/><path d="M1632 2225.5C1632 2178.83 1669.83 2141 1716.5 2141 1763.17 2141 1801 2178.83 1801 2225.5 1801 2272.17 1763.17 2310 1716.5 2310 1669.83 2310 1632 2272.17 1632 2225.5Z" stroke="#0E2841" stroke-width="45.8333" stroke-miterlimit="8" fill="none" fill-rule="evenodd"/><path d="M3366.34 2397.71 3112 2288" stroke="#156082" stroke-width="27.5" stroke-linecap="round" stroke-miterlimit="8" fill="none" fill-rule="evenodd"/><path d="M2177.61 235.622 2737.92 526.206 2714.71 570.961 2154.39 280.378ZM2761.13 481.45C2798.21 500.678 2812.67 546.323 2793.45 583.4 2774.22 620.477 2728.57 634.946 2691.5 615.717 2654.42 596.489 2639.95 550.844 2659.18 513.767 2678.41 476.69 2724.05 462.221 2761.13 481.45Z" fill="#0B3041"/><path d="M14.4591-17.7795 533.522 404.346 504.603 439.904-14.4591 17.7795ZM562.44 368.787C591.898 392.743 596.357 436.044 572.401 465.502 548.444 494.96 505.143 499.42 475.685 475.463 446.227 451.507 441.768 408.206 465.724 378.748 489.681 349.29 532.982 344.83 562.44 368.787Z" fill="#163E64" transform="matrix(1 0 0 -1 1647 669.125)"/><rect x="451" y="1930" width="3498" height="99" fill="#104862"/><path d="M2820.92 1991.52 3106.2 2267.01 3074.36 2299.98 2789.08 2024.48ZM3138.04 2234.04C3165.35 2260.42 3166.11 2303.94 3139.73 2331.25 3113.36 2358.56 3069.83 2359.32 3042.52 2332.95 3015.21 2306.57 3014.45 2263.05 3040.82 2235.74 3067.2 2208.42 3110.72 2207.66 3138.04 2234.04Z" fill="#104862"/><path d="M3006 2285.5C3006 2238.83 3043.83 2201 3090.5 2201 3137.17 2201 3175 2238.83 3175 2285.5 3175 2332.17 3137.17 2370 3090.5 2370 3043.83 2370 3006 2332.17 3006 2285.5Z" stroke="#0E2841" stroke-width="45.8333" stroke-miterlimit="8" fill="none" fill-rule="evenodd"/><path d="M1196.83 401.648 1639.17 657.624 1618.51 693.327 1176.17 437.351ZM1659.83 621.921C1689.41 639.037 1699.51 676.889 1682.39 706.467 1665.28 736.044 1627.43 746.146 1597.85 729.03 1568.27 711.914 1558.17 674.062 1575.28 644.484 1592.4 614.907 1630.25 604.805 1659.83 621.921Z" fill="#156082"/></g></svg>